<svg width="17" height="17" viewBox="0 0 17 17" fill="none" xmlns="http://www.w3.org/2000/svg">
<rect y="8.5" width="8.5" height="8.5" transform="rotate(-90 0 8.5)" fill="#DBFF00"/>
<rect x="8.5" y="8.5" width="8.5" height="8.5" transform="rotate(-90 8.5 8.5)" fill="#DBFF00"/>
<path d="M17 8.5V7.4375L15.9375 8.5H17Z" fill="#1E1E1E"/>
<path d="M15.9375 8.5V7.4375L14.875 8.5H15.9375Z" fill="#1E1E1E"/>
<path d="M14.875 8.5V7.4375L13.8125 8.5H14.875Z" fill="#1E1E1E"/>
<path d="M13.8125 8.5V7.4375L12.75 8.5H13.8125Z" fill="#1E1E1E"/>
<path d="M12.75 8.5V7.4375L11.6875 8.5H12.75Z" fill="#1E1E1E"/>
<path d="M11.6875 8.5V7.4375L10.625 8.5H11.6875Z" fill="#1E1E1E"/>
<path d="M10.625 8.5V7.4375L9.5625 8.5H10.625Z" fill="#1E1E1E"/>
<path d="M9.5625 8.5V7.4375L8.5 8.5H9.5625Z" fill="#1E1E1E"/>
<path d="M17 7.4375V6.375L15.9375 7.4375H17Z" fill="#1E1E1E"/>
<path d="M15.9375 7.4375V6.375L14.875 7.4375H15.9375Z" fill="#1E1E1E"/>
<path d="M14.875 7.4375V6.375L13.8125 7.4375H14.875Z" fill="#1E1E1E"/>
<path d="M13.8125 7.4375V6.375L12.75 7.4375H13.8125Z" fill="#1E1E1E"/>
<path d="M12.75 7.4375V6.375L11.6875 7.4375H12.75Z" fill="#1E1E1E"/>
<path d="M11.6875 7.4375V6.375L10.625 7.4375H11.6875Z" fill="#1E1E1E"/>
<path d="M10.625 7.4375V6.375L9.5625 7.4375H10.625Z" fill="#1E1E1E"/>
<path d="M17 6.375V5.3125L15.9375 6.375H17Z" fill="#1E1E1E"/>
<path d="M15.9375 6.375V5.3125L14.875 6.375H15.9375Z" fill="#1E1E1E"/>
<path d="M14.875 6.375V5.3125L13.8125 6.375H14.875Z" fill="#1E1E1E"/>
<path d="M13.8125 6.375V5.3125L12.75 6.375H13.8125Z" fill="#1E1E1E"/>
<path d="M12.75 6.375V5.3125L11.6875 6.375H12.75Z" fill="#1E1E1E"/>
<path d="M11.6875 6.375V5.3125L10.625 6.375H11.6875Z" fill="#1E1E1E"/>
<path d="M17 5.3125V4.25L15.9375 5.3125H17Z" fill="#1E1E1E"/>
<path d="M15.9375 5.3125V4.25L14.875 5.3125H15.9375Z" fill="#1E1E1E"/>
<path d="M14.875 5.3125V4.25L13.8125 5.3125H14.875Z" fill="#1E1E1E"/>
<path d="M13.8125 5.3125V4.25L12.75 5.3125H13.8125Z" fill="#1E1E1E"/>
<path d="M12.75 5.3125V4.25L11.6875 5.3125H12.75Z" fill="#1E1E1E"/>
<path d="M17 4.25V3.1875L15.9375 4.25H17Z" fill="#1E1E1E"/>
<path d="M15.9375 4.25V3.1875L14.875 4.25H15.9375Z" fill="#1E1E1E"/>
<path d="M14.875 4.25V3.1875L13.8125 4.25H14.875Z" fill="#1E1E1E"/>
<path d="M13.8125 4.25V3.1875L12.75 4.25H13.8125Z" fill="#1E1E1E"/>
<path d="M17 3.1875V2.125L15.9375 3.1875H17Z" fill="#1E1E1E"/>
<path d="M15.9375 3.1875V2.125L14.875 3.1875H15.9375Z" fill="#1E1E1E"/>
<path d="M14.875 3.1875V2.125L13.8125 3.1875H14.875Z" fill="#1E1E1E"/>
<path d="M17 2.125V1.0625L15.9375 2.125H17Z" fill="#1E1E1E"/>
<path d="M15.9375 2.125V1.0625L14.875 2.125H15.9375Z" fill="#1E1E1E"/>
<path d="M17 1.0625V0L15.9375 1.0625H17Z" fill="#1E1E1E"/>
<rect y="17" width="8.5" height="8.5" transform="rotate(-90 0 17)" fill="white"/>
<path d="M-7.37906e-07 8.5C-7.37906e-07 9.61624 0.219858 10.7215 0.647023 11.7528C1.07419 12.7841 1.70029 13.7211 2.48959 14.5104C3.27889 15.2997 4.21592 15.9258 5.24719 16.353C6.27846 16.7801 7.38376 17 8.5 17L8.5 8.5H-7.37906e-07Z" fill="white"/>
<rect width="8.5" height="8.5" transform="matrix(0 -1 -1 0 17 17)" fill="#1E1E1E"/>
<path d="M8.5 17V8.5L17 17H8.5Z" fill="#1E1E1E"/>
</svg>
