<svg width="33" height="33" viewBox="0 0 33 33" fill="none" xmlns="http://www.w3.org/2000/svg">
<rect y="16.5" width="16.5" height="16.5" transform="rotate(-90 0 16.5)" fill="#DBFF00"/>
<rect x="16.5" y="16.5" width="16.5" height="16.5" transform="rotate(-90 16.5 16.5)" fill="#DBFF00"/>
<path d="M33 16.5V14.4375L30.9375 16.5H33Z" fill="#1E1E1E"/>
<path d="M30.9375 16.5V14.4375L28.875 16.5H30.9375Z" fill="#1E1E1E"/>
<path d="M28.875 16.5V14.4375L26.8125 16.5H28.875Z" fill="#1E1E1E"/>
<path d="M26.8125 16.5V14.4375L24.75 16.5H26.8125Z" fill="#1E1E1E"/>
<path d="M24.75 16.5V14.4375L22.6875 16.5H24.75Z" fill="#1E1E1E"/>
<path d="M22.6875 16.5V14.4375L20.625 16.5H22.6875Z" fill="#1E1E1E"/>
<path d="M20.625 16.5V14.4375L18.5625 16.5H20.625Z" fill="#1E1E1E"/>
<path d="M18.5625 16.5V14.4375L16.5 16.5H18.5625Z" fill="#1E1E1E"/>
<path d="M33 14.4375V12.375L30.9375 14.4375H33Z" fill="#1E1E1E"/>
<path d="M30.9375 14.4375V12.375L28.875 14.4375H30.9375Z" fill="#1E1E1E"/>
<path d="M28.875 14.4375V12.375L26.8125 14.4375H28.875Z" fill="#1E1E1E"/>
<path d="M26.8125 14.4375V12.375L24.75 14.4375H26.8125Z" fill="#1E1E1E"/>
<path d="M24.75 14.4375V12.375L22.6875 14.4375H24.75Z" fill="#1E1E1E"/>
<path d="M22.6875 14.4375V12.375L20.625 14.4375H22.6875Z" fill="#1E1E1E"/>
<path d="M20.625 14.4375V12.375L18.5625 14.4375H20.625Z" fill="#1E1E1E"/>
<path d="M33 12.375V10.3125L30.9375 12.375H33Z" fill="#1E1E1E"/>
<path d="M30.9375 12.375V10.3125L28.875 12.375H30.9375Z" fill="#1E1E1E"/>
<path d="M28.875 12.375V10.3125L26.8125 12.375H28.875Z" fill="#1E1E1E"/>
<path d="M26.8125 12.375V10.3125L24.75 12.375H26.8125Z" fill="#1E1E1E"/>
<path d="M24.75 12.375V10.3125L22.6875 12.375H24.75Z" fill="#1E1E1E"/>
<path d="M22.6875 12.375V10.3125L20.625 12.375H22.6875Z" fill="#1E1E1E"/>
<path d="M33 10.3125V8.25L30.9375 10.3125H33Z" fill="#1E1E1E"/>
<path d="M30.9375 10.3125V8.25L28.875 10.3125H30.9375Z" fill="#1E1E1E"/>
<path d="M28.875 10.3125V8.25L26.8125 10.3125H28.875Z" fill="#1E1E1E"/>
<path d="M26.8125 10.3125V8.25L24.75 10.3125H26.8125Z" fill="#1E1E1E"/>
<path d="M24.75 10.3125V8.25L22.6875 10.3125H24.75Z" fill="#1E1E1E"/>
<path d="M33 8.25V6.1875L30.9375 8.25H33Z" fill="#1E1E1E"/>
<path d="M30.9375 8.25V6.1875L28.875 8.25H30.9375Z" fill="#1E1E1E"/>
<path d="M28.875 8.25V6.1875L26.8125 8.25H28.875Z" fill="#1E1E1E"/>
<path d="M26.8125 8.25V6.1875L24.75 8.25H26.8125Z" fill="#1E1E1E"/>
<path d="M33 6.1875V4.125L30.9375 6.1875H33Z" fill="#1E1E1E"/>
<path d="M30.9375 6.1875V4.125L28.875 6.1875H30.9375Z" fill="#1E1E1E"/>
<path d="M28.875 6.1875V4.125L26.8125 6.1875H28.875Z" fill="#1E1E1E"/>
<path d="M33 4.125V2.0625L30.9375 4.125H33Z" fill="#1E1E1E"/>
<path d="M30.9375 4.125V2.0625L28.875 4.125H30.9375Z" fill="#1E1E1E"/>
<path d="M33 2.0625V0L30.9375 2.0625H33Z" fill="#1E1E1E"/>
<rect y="33" width="16.5" height="16.5" transform="rotate(-90 0 33)" fill="white"/>
<path d="M-1.90735e-06 16.5C-1.90735e-06 18.6668 0.426783 20.8124 1.25599 22.8143C2.08519 24.8161 3.30057 26.6351 4.83274 28.1673C6.3649 29.6994 8.18385 30.9148 10.1857 31.744C12.1876 32.5732 14.3332 33 16.5 33L16.5 16.5H-1.90735e-06Z" fill="white"/>
<rect width="16.5" height="16.5" transform="matrix(0 -1 -1 0 33 33)" fill="#1E1E1E"/>
<path d="M16.5 33V16.5L33 33H16.5Z" fill="#1E1E1E"/>
</svg>
