<svg width="22" height="23" viewBox="0 0 22 23" fill="none" xmlns="http://www.w3.org/2000/svg">
<path d="M21.5911 10.2083C21.5911 11.4583 21.3915 12.6042 20.9922 13.6458C20.5929 14.6788 20.0286 15.4905 19.2995 16.0807C18.5703 16.671 17.724 16.9661 16.7604 16.9661C16.1181 16.9661 15.5495 16.8142 15.0547 16.5104C14.5599 16.1979 14.204 15.7899 13.987 15.2865H13.7786C12.8411 16.4063 11.6476 16.9661 10.1979 16.9661C8.66146 16.9661 7.45052 16.5061 6.5651 15.5859C5.67969 14.6571 5.23698 13.3898 5.23698 11.7839C5.23698 9.95226 5.81858 8.47656 6.98177 7.35677C8.14497 6.23698 9.66406 5.67708 11.5391 5.67708C12.2856 5.67708 13.1059 5.75087 14 5.89844C14.9028 6.03733 15.645 6.2066 16.2266 6.40625L15.9271 12.7734C15.9271 13.98 16.2569 14.5833 16.9167 14.5833C17.4722 14.5833 17.9149 14.1797 18.2448 13.3724C18.5747 12.5564 18.7396 11.4931 18.7396 10.1823C18.7396 8.78472 18.4488 7.55208 17.8672 6.48438C17.2856 5.40799 16.4653 4.58767 15.4062 4.02344C14.3559 3.4592 13.1536 3.17708 11.7995 3.17708C10.046 3.17708 8.52257 3.53733 7.22917 4.25781C5.93576 4.9783 4.94184 6.01997 4.2474 7.38281C3.56163 8.73698 3.21875 10.3038 3.21875 12.0833C3.21875 14.4792 3.85677 16.3194 5.13281 17.6042C6.41753 18.8802 8.27517 19.5182 10.7057 19.5182C11.6259 19.5182 12.6372 19.4184 13.7396 19.2188C14.842 19.0104 15.9271 18.7109 16.9948 18.3203V20.8203C15.1372 21.6102 13.0755 22.0052 10.8099 22.0052C7.51128 22.0052 4.9375 21.1372 3.08854 19.401C1.24826 17.6649 0.328125 15.2517 0.328125 12.1615C0.328125 10.0174 0.796875 8.07292 1.73437 6.32813C2.68056 4.57465 4.0217 3.20313 5.75781 2.21354C7.5026 1.21528 9.50781 0.716146 11.7734 0.716146C13.6832 0.716146 15.3889 1.10677 16.8906 1.88802C18.3924 2.66927 19.5512 3.78038 20.3672 5.22135C21.1832 6.66233 21.5911 8.32465 21.5911 10.2083ZM8.25781 11.8359C8.25781 13.6675 9.00434 14.5833 10.4974 14.5833C11.2786 14.5833 11.8733 14.3099 12.2812 13.763C12.6892 13.2075 12.9366 12.309 13.0234 11.0677L13.1927 8.1901C12.75 8.09462 12.2509 8.04688 11.6953 8.04688C10.6102 8.04688 9.76389 8.38542 9.15625 9.0625C8.55729 9.73958 8.25781 10.6641 8.25781 11.8359Z" fill="white"/>
</svg>
