<svg width="25" height="26" viewBox="0 0 25 26" fill="none" xmlns="http://www.w3.org/2000/svg">
<path d="M21.3404 18.3541L17.1061 14.5041C16.9059 14.3222 16.6429 14.2252 16.3725 14.2335C16.1022 14.2419 15.8456 14.355 15.6571 14.5489L13.1644 17.1125C12.5644 16.9979 11.3581 16.6218 10.1165 15.3833C8.87481 14.1406 8.49876 12.9312 8.38731 12.3354L10.9488 9.84163C11.1429 9.65322 11.2562 9.39665 11.2646 9.12622C11.2729 8.85579 11.1757 8.59271 10.9936 8.39267L7.1446 4.15934C6.96235 3.95867 6.70905 3.83695 6.43851 3.82003C6.16796 3.8031 5.90147 3.89232 5.69564 4.06871L3.43522 6.00726C3.25513 6.188 3.14764 6.42856 3.13314 6.6833C3.11751 6.94371 2.8196 13.1125 7.60293 17.8979C11.7758 22.0698 17.0029 22.375 18.4425 22.375C18.6529 22.375 18.7821 22.3687 18.8165 22.3666C19.0712 22.3524 19.3116 22.2444 19.4915 22.0635L21.429 19.802C21.6061 19.5969 21.6959 19.3306 21.6794 19.0601C21.6629 18.7895 21.5412 18.5362 21.3404 18.3541Z" fill="white"/>
</svg>
